<svg id="Layer_1" data-name="Layer 1" xmlns="http://www.w3.org/2000/svg" xmlns:xlink="http://www.w3.org/1999/xlink" viewBox="0 0 1398 1398"><defs><style>.cls-1{fill:#1b1c32;}.cls-2{font-size:225px;fill:#fff;font-family:Montserrat-Light, Montserrat;font-weight:300;}.cls-3{letter-spacing:-0.01em;}.cls-4{letter-spacing:-0.03em;}.cls-5{font-size:88px;fill:#9e29c7;font-family:Montserrat-Medium, Montserrat;font-weight:500;letter-spacing:0.33em;}.cls-6{letter-spacing:0.33em;}.cls-7{letter-spacing:0.32em;}.cls-8{letter-spacing:0.29em;}.cls-9{letter-spacing:0.32em;}.cls-10{letter-spacing:0.33em;}.cls-11{fill:url(#Degradado_sin_nombre_44);}</style><linearGradient id="Degradado_sin_nombre_44" x1="290.68" y1="553.72" x2="1090.68" y2="553.72" gradientUnits="userSpaceOnUse"><stop offset="0" stop-color="#01f8f5"/><stop offset="0.52" stop-color="#9e29c7"/><stop offset="1" stop-color="#f40ea7"/></linearGradient></defs><rect class="cls-1" width="1398" height="1398"/><text class="cls-2" transform="translate(213.33 1134.08)"><tspan class="cls-3">S</tspan><tspan class="cls-4" x="134.55" y="0">T</tspan><tspan x="231.53" y="0">ALLION</tspan><tspan class="cls-5"><tspan x="-186.67" y="105.6">SO</tspan><tspan class="cls-6" x="-19.74" y="105.6">F</tspan><tspan class="cls-7" x="57.61" y="105.6">T</tspan><tspan class="cls-8" x="129.33" y="105.6">W</tspan><tspan x="239.33" y="105.6">ARE SO</tspan><tspan class="cls-9" x="705.82" y="105.6">L</tspan><tspan class="cls-10" x="778.42" y="105.6">UTION</tspan></tspan></text><path class="cls-11" d="M1075.4,460.42c-11.77-51.7-27.82-103.61-37.71-133.92a29.07,29.07,0,0,0,16.86-26.2c0-16.07-13.35-29.1-29.83-29.13l-16.81-117.45L950.63,241H842.18a30.28,30.28,0,0,0-48.46,0H698.37a43.44,43.44,0,0,0-39.74-25.31c-24,0-43.41,18.94-43.41,42.32s19.44,42.32,43.41,42.32a43.54,43.54,0,0,0,38.1-22L751,332.77a28.83,28.83,0,0,0-7.84,14H544.39c-3.19-20.31-21.13-35.9-42.86-35.9-24,0-43.41,18.95-43.41,42.33s19.43,42.32,43.41,42.32a43.87,43.87,0,0,0,28.07-10.07l102,69.53-255.53-7.25c-4.8-18.28-21.76-31.8-42-31.8-24,0-43.41,18.95-43.41,42.32s19.43,42.33,43.41,42.33a43.55,43.55,0,0,0,38.49-22.79L635,598.63a29.55,29.55,0,0,0-.35,4.23c0,.28,0,.55.05.82L517.66,613.87c-1.76-14.46-14.35-25.69-29.66-25.69a29.88,29.88,0,0,0-27.76,18.39L349.75,586.21a29.72,29.72,0,0,0-29.19-22.94c-16.5,0-29.88,13-29.88,29.13s13.38,29.14,29.88,29.14a29.74,29.74,0,0,0,29-22.28l108.64,20a28.68,28.68,0,0,0,8.09,18.05L357.55,725a30.07,30.07,0,0,0-23.46-11.13c-16.5,0-29.88,13-29.88,29.13s13.38,29.14,29.88,29.14S364,759.1,364,743a28.26,28.26,0,0,0-.64-6l114.52-92.33A30.4,30.4,0,0,0,488,646.45a29.81,29.81,0,0,0,28.19-19.55l121.88-10.61a29.93,29.93,0,0,0,26.5,15.7,30.32,30.32,0,0,0,15.93-4.51L722,668a28.64,28.64,0,0,0-1.07,7.63c0,16.09,13.38,29.13,29.88,29.13a30.19,30.19,0,0,0,19.92-7.45L850,715.67a28.52,28.52,0,0,0,5.27,14.85L677.15,901.74a30.37,30.37,0,0,0-31.35-3.44l-38.55-38.76a41.4,41.4,0,0,0,8-24.39c0-23.38-19.43-42.33-43.41-42.33s-43.41,18.95-43.41,42.33,19.44,42.32,43.41,42.32a43.89,43.89,0,0,0,26.28-8.69l37.3,37.51a28.53,28.53,0,0,0-6.64,18.29c0,16.09,13.38,29.14,29.88,29.14s29.88-13.05,29.88-29.14a28.37,28.37,0,0,0-3.06-12.78L865.06,739.19A30.27,30.27,0,0,0,879.82,743c16.5,0,29.88-13,29.88-29.13s-13.38-29.13-29.88-29.13A29.87,29.87,0,0,0,852.13,703l-73.39-17a28.45,28.45,0,0,0,2-10.33,28.83,28.83,0,0,0-11.47-22.92L848.5,445c.48,0,1,.07,1.43.07a30.29,30.29,0,0,0,14.9-3.9l144.52,148.14c6.36,20.13,16.48,32.57,30.1,37a35.62,35.62,0,0,0,11,1.7c15.37,0,28-9.16,28.66-9.64l1-.7.64-1C1095.59,593.7,1093.8,541.14,1075.4,460.42ZM1061,456.66l-44.17,7.63a29.79,29.79,0,0,0-23.57-17.56L962.11,372.3a28.24,28.24,0,0,0,6.48-26l36-24.51a30.17,30.17,0,0,0,20.09,7.61h.15C1034.19,358.07,1049.39,407.06,1061,456.66Zm-376,125a30,30,0,0,0-12.94-7l-8.34-78.05c14.05-2.39,24.73-14.3,24.73-28.68a28.62,28.62,0,0,0-8.38-20.2l79.61-68.16a30.47,30.47,0,0,0,12.58,2.73A30.16,30.16,0,0,0,792.13,375l29.58,31.46a28.27,28.27,0,0,0-1.66,9.5A28.71,28.71,0,0,0,829,436.69Zm194.2-171.32L923.9,378a30.49,30.49,0,0,0,27.23,2.1l28.47,68a29.2,29.2,0,0,0-20.19,27.54c0,14.44,10.79,26.39,24.94,28.7l-7.26,33.32L874.53,432.47a28.48,28.48,0,0,0,5.29-16.53A29.12,29.12,0,0,0,879.26,410.38Zm78.58-156.56,41.94-63.89,12,84.1a29.07,29.07,0,0,0-17,26.27,28.3,28.3,0,0,0,2.22,11L962.66,334.7a30.12,30.12,0,0,0-23.08-10.63,30.63,30.63,0,0,0-8.84,1.3l-83-68.78c0-.93-.13-1.86-.26-2.77Zm-256,0h86.58a28.47,28.47,0,0,0-.34,4.16c0,16.09,13.38,29.13,29.88,29.13a29.92,29.92,0,0,0,26.75-16.2l74.08,61.41a28.5,28.5,0,0,0-4.38,36.54l-40.66,29.52a30.31,30.31,0,0,0-44.75-3.2l-29-30.89a28.24,28.24,0,0,0,2.26-11.08c0-16.09-13.38-29.14-29.89-29.14a30.3,30.3,0,0,0-9.9,1.68l-61-61.18A40.88,40.88,0,0,0,702,258C702,256.58,702,255.19,701.83,253.82ZM538.26,375.69a41.52,41.52,0,0,0,6.13-16.06H743.2a28.64,28.64,0,0,0,5.94,11.95l-80.54,69a30.29,30.29,0,0,0-28.47,4.58ZM376.81,465.54a41.91,41.91,0,0,0,.57-4.91l251.38,7.14c0,.07,0,.13,0,.2a29.25,29.25,0,0,0,21.72,28l8.36,78.3a29.92,29.92,0,0,0-19.06,12.32Zm374,180.91a30.1,30.1,0,0,0-22.24,9.74l-38.77-37.8a28.18,28.18,0,0,0,2.71-25.74l139-140.09L757.29,647.15A31.28,31.28,0,0,0,750.82,646.45Zm319.43-37.76c-3.39,2.17-15.44,9-26.66,5.37-9.61-3.09-17-13.14-22-29.88l-.46-1.49-33-33.8L998,503.44A29.27,29.27,0,0,0,1019.11,477l44.77-7.73C1083.68,558.64,1078.57,594.5,1070.25,608.69Z" transform="translate(-2.76 0.24)"/></svg>